yTitle: Un Amor

Country: Argentina, 2011

Language: Spanish

Director: Paula Hernández

Writers: Sergio Bizzio (short story), Paula Hernández

Stars: Diego Peretti, Elena Roger and Luis Ziembrowski

Plot: Two childhood friends fall in love with the same girl, Lisa. They form a love triangle until she suddenly leaves town. On a business trip thirty years later, Lisa decides to see them again, reawakening old memories. Based on short story “Un amor para toda la vida”, by acclaimed Argentinian writer and screenwriter, Sergio Bizzio.

Imdb: http://www.imdb.com/title/tt1886740/

Rip Specs:


General
Complete name                    : C:UsersGustavoDownloadsUn.amor.2011.DVDRip.Xvid-retibuyendo.avi
Format                           : AVI
Format/Info                      : Audio Video Interleave
File size                        : 700 MiB
Duration                         : 1h 39mn
Overall bit rate                 : 981 Kbps
Director                         : by retibuyendo
Writing application              : VirtualDubMod 1.5.10.3 | www.virtualdub-fr.org || (build 2550/release)
Writing library                  : VirtualDub build 34753/release

Video
ID                               : 0
Format                           : MPEG-4 Visual
Format profile                   : Advanced Simple@L5
Format settings, BVOP            : 1
Format settings, QPel            : No
Format settings, GMC             : No warppoints
Format settings, Matrix          : Default (H.263)
Muxing mode                      : Packed bitstream
Codec ID                         : XVID
Codec ID/Hint                    : XviD
Duration                         : 1h 39mn
Bit rate                         : 859 Kbps
Width                            : 640 pixels
Height                           : 272 pixels
Display aspect ratio             : 2.35:1
Frame rate                       : 23.976 fps
Color space                      : YUV
Chroma subsampling               : 4:2:0
Bit depth                        : 8 bits
Scan type                        : Progressive
Compression mode                 : Lossy
Bits/(Pixel*Frame)               : 0.206
Stream size                      : 613 MiB (88%)
Writing library                  : XviD 64

Audio
ID                               : 1
Format                           : MPEG Audio
Format version                   : Version 1
Format profile                   : Layer 3
Mode                             : Joint stereo
Mode extension                   : MS Stereo
Codec ID                         : 55
Codec ID/Hint                    : MP3
Duration                         : 1h 39mn
Bit rate mode                    : Variable
Bit rate                         : 109 Kbps
Channel(s)                       : 2 channels
Sampling rate                    : 44.1 KHz
Compression mode                 : Lossy
Stream size                      : 77.9 MiB (11%)
Alignment                        : Aligned on interleaves
Interleave, duration             : 26 ms (0.63 video frame)
Interleave, preload duration     : 554 ms
